# xmcd CD database file
#
# Track frame offsets:
#	150
#	23493
#	43011
#	66355
#
# Disc length: 1141 seconds
#
# Revision: 4
# Processed by: cddbd v1.5.2PL0 Copyright (c) Steve Scherf et al.
# Submitted via: CDex 1.70beta3
#
DISCID=2c047304
DTITLE=一ノ瀬トキヤ (宮野真守) - うたの☆プリンスさまっ♪マジLOVE2000% アイドルソング 一ノ瀬トキヤ
DYEAR=2013
DGENRE=Anime
TTITLE0=CRYSTAL TIME
TTITLE1=Independence
TTITLE2=CRYSTAL TIME (off vocal)
TTITLE3=Independence (off vocal)
EXTD=YEAR: 2013
EXTT0=
EXTT1=
EXTT2=
EXTT3=
PLAYORDER=
